<svg width="108" height="27" viewBox="0 0 108 27" fill="none" xmlns="http://www.w3.org/2000/svg">
<g clip-path="url(#clip0)">
<path d="M34.7065 22.1075C32.6738 21.9914 30.1204 20.6149 29.0956 19.5866L31.3467 16.7506C31.9011 17.3642 34.5553 18.8735 36.3696 18.5418C36.8567 18.4423 37.4111 18.0276 37.4111 17.3808C37.4447 16.9496 37.0751 16.5516 36.7559 16.4023C36.4535 16.1867 35.496 16.1536 34.8745 16.1204C34.1689 16.0872 33.3626 16.0043 32.5058 15.656C30.9267 14.8931 29.818 13.3176 29.7676 11.6425C29.7676 9.66892 30.5739 8.57432 31.3971 7.89435C33.0602 6.61732 35.3784 6.50123 36.9743 6.91585C38.2342 7.21437 39.6285 7.89435 40.4517 8.67383L38.3854 11.5264C38.083 11.3108 36.6215 10.6474 36.0672 10.4982C35.2104 10.2494 34.1185 10.3821 33.6313 10.6806C33.4801 10.7635 33.2618 11.1118 33.329 11.5264C33.329 11.8249 33.6145 12.2561 33.8161 12.3722C34.2529 12.5878 34.6561 12.7039 35.2272 12.7371C36.0336 12.7371 37.3775 12.7371 38.4022 13.2181C40.0989 14.1302 41.09 15.6892 40.9556 17.4803C40.8548 19.0393 39.7797 20.5485 38.3686 21.2783C37.3271 21.9582 35.916 22.207 34.7065 22.1075Z" fill="#2A3137"/>
<path d="M49.6911 21.9582C47.692 21.9582 45.8105 21.1953 44.3658 19.8354C42.8875 18.4423 42.0476 16.5516 42.0308 14.5117C41.9972 12.4717 42.7699 10.5645 44.181 9.08846C45.5921 7.66217 47.5072 6.79976 49.5735 6.78317C51.6397 6.75 53.5548 7.5129 55.0331 8.90602L52.4797 11.5264C51.7405 10.8299 50.7494 10.4318 49.7079 10.4318H49.6407C48.5655 10.4318 47.5744 10.863 46.8353 11.6259C46.0961 12.3888 45.6929 13.3839 45.7265 14.4619C45.7265 15.5233 46.1633 16.5018 46.936 17.2316C47.7088 17.9613 48.7167 18.3593 49.8087 18.3262C50.7998 18.3262 51.7237 17.9281 52.4629 17.2647L54.9659 19.9349C53.5716 21.2119 51.7573 21.9416 49.8758 21.9748H49.6911V21.9582Z" fill="#2A3137"/>
<path d="M70.4377 6.83291V21.9914H67.3635V20.6148C66.1036 21.4607 64.5917 21.9914 62.9622 21.9914C58.7121 21.9914 55.2515 18.5583 55.2515 14.379C55.2515 10.183 58.6953 6.76657 62.9622 6.76657C64.5917 6.76657 66.1036 7.2807 67.3635 8.14311V6.83291H70.4377ZM66.9435 14.379C66.9435 12.1898 65.1628 10.4318 62.9286 10.4318C60.7447 10.4318 58.9472 12.1898 58.9472 14.379C58.9472 16.535 60.7279 18.3096 62.9286 18.3096C65.1628 18.3096 66.9435 16.535 66.9435 14.379Z" fill="#2A3137"/>
<path d="M88.1437 14.6775C88.1437 18.8403 84.7167 22.2236 80.5338 22.2236C78.9547 22.2236 77.51 21.7426 76.3173 20.9466V27H72.6552V6.93243H76.3173V8.45823C77.5268 7.62899 78.9715 7.18121 80.5338 7.18121C84.7335 7.16462 88.1437 10.5479 88.1437 14.6775ZM84.4816 14.6775C84.4816 12.5215 82.7177 10.7801 80.5338 10.7801C78.35 10.7801 76.5525 12.5215 76.5525 14.6775C76.5525 16.8335 78.3332 18.6081 80.5338 18.6081C82.7177 18.6081 84.4816 16.8501 84.4816 14.6775Z" fill="#2A3137"/>
<path d="M91.4699 5.12469C90.0924 5.12469 88.9836 4.0301 88.9836 2.62039V2.45455C88.9836 1.09459 90.0924 0 91.4699 0C92.881 0 94.0401 1.09459 94.0401 2.45455V2.62039C94.0401 4.01351 92.881 5.12469 91.4699 5.12469ZM93.385 21.8919H89.7564V6.78317H93.385V21.8919Z" fill="#2A3137"/>
<path d="M102.658 21.9582C100.659 21.9582 98.7774 21.1953 97.3327 19.8354C95.8544 18.4423 95.0144 16.5516 94.9976 14.5117C94.964 12.4717 95.7368 10.5645 97.1479 9.08846C98.559 7.66217 100.474 6.79976 102.54 6.78317C104.607 6.75 106.522 7.5129 108 8.90602L105.447 11.5264C104.707 10.8299 103.716 10.4318 102.675 10.4318H102.608C101.532 10.4318 100.541 10.863 99.8021 11.6259C99.063 12.3888 98.6598 13.3839 98.6934 14.4619C98.6934 15.5233 99.1302 16.5018 99.9029 17.2316C100.676 17.9613 101.684 18.3593 102.776 18.3262C103.767 18.3262 104.691 17.9281 105.43 17.2647L107.933 19.9349C106.538 21.2119 104.724 21.9416 102.843 21.9748H102.658V21.9582Z" fill="#2A3137"/>
<path d="M11.9777 20.0841C11.6753 20.1173 11.5913 19.7027 11.8769 19.6198C11.8937 19.6198 11.8937 19.6198 11.9105 19.6032C17.8741 17.9447 22.2418 14.9429 21.6706 12.9029C21.0826 10.863 15.7742 10.5479 9.8106 12.2064C3.847 13.8648 -0.520712 16.8667 0.0504498 18.9066C1.73034 24.7942 7.92912 28.2438 13.8927 26.5854C18.7476 25.242 21.9562 20.93 22.0738 16.2033C17.7565 19.8685 11.9777 20.0841 11.9777 20.0841Z" fill="#F54547"/>
<path d="M17.8909 5.04176C16.8493 1.37653 12.9856 -0.76291 9.25623 0.265346C6.43402 1.06141 4.48535 3.46621 4.19977 6.20269C4.70373 5.871 6.93799 4.54422 10.3314 4.32861C10.4154 4.32861 10.4658 4.31203 10.4658 4.31203C10.6505 4.27886 10.7009 4.5608 10.5329 4.61056H10.5161C6.7868 5.63881 4.06538 7.51289 4.41815 8.78992C4.78773 10.0669 8.08031 10.2494 11.8097 9.22112C15.539 8.17628 18.2604 6.31879 17.8909 5.04176Z" fill="#F54547"/>
</g>
<defs>
<clipPath id="clip0">
<rect width="108" height="27" fill="white"/>
</clipPath>
</defs>
</svg>
