<svg xmlns="http://www.w3.org/2000/svg" viewBox="0 0 446.92 113.08"><defs><style>.cls-1{fill:#4ec8f4;}.cls-2{fill:#1a1a1a;}.cls-3{fill:#fff;}</style></defs><title>logo-youplus-color</title><g id="Layer_2" data-name="Layer 2"><g id="Layer_1-2" data-name="Layer 1"><path d="M299.42,62V84.05h-8.18V29.67h9.26a41.17,41.17,0,0,1,10.26.95A14,14,0,0,1,317,34.23,15.18,15.18,0,0,1,321.6,45.7c0,4.95-1.58,8.94-5,11.79s-7.86,4.31-13.44,4.31l-3.74.19Zm0-7.6h3c7.54,0,11.35-2.92,11.35-8.69,0-5.58-3.87-8.36-11.67-8.36h-2.66v17Z"/><path d="M339.92,29.67V76.26h16V84H331.68V29.67Z"/><path d="M370.6,29.67V62.25c0,4.62.76,8,2.28,10.2,2.29,3.17,5.46,4.63,9.64,4.63a11.39,11.39,0,0,0,9.63-4.63c1.53-2,2.29-5.45,2.29-10.2V29.67h8.11V64.59c0,5.77-1.78,10.46-5.39,14.14a19.77,19.77,0,0,1-14.7,6.21,19.8,19.8,0,0,1-20.1-20.35V29.67Z"/><path d="M445.46,37.72l-6.59,3.86c-1.27-2.09-2.41-3.61-3.61-4.18a8.2,8.2,0,0,0-4.5-1.21,8.75,8.75,0,0,0-5.64,1.91,6.11,6.11,0,0,0-2.28,4.75c0,2.66,2,4.75,5.89,6.4l5.45,2.22c4.37,1.78,7.54,3.93,9.7,6.53a14.86,14.86,0,0,1,3,9.38,16.21,16.21,0,0,1-5,12.36,17.24,17.24,0,0,1-12.48,5c-4.76,0-8.69-1.4-11.67-4.19s-4.94-6.72-5.64-11.79l8.31-1.84c.38,3.17,1.07,5.46,2,6.6C424,75.81,426.51,77,429.81,77a8.72,8.72,0,0,0,6.4-2.6,8.85,8.85,0,0,0,2.53-6.46A8.72,8.72,0,0,0,438.3,65a7.91,7.91,0,0,0-1.39-2.41,9.81,9.81,0,0,0-2.41-2A16,16,0,0,0,431,58.7l-5.2-2.22c-7.41-3.17-11.09-7.73-11.09-13.76a13.28,13.28,0,0,1,4.63-10.2A16.82,16.82,0,0,1,431,28.4Q440.15,28.78,445.46,37.72Z"/><path class="cls-1" d="M144.24,60.47,126.56,29.6h9.38l12.42,21.68L160.79,29.6h9.38L152.36,60.47V83.93h-8.24l.12-23.46Z"/><path class="cls-1" d="M246.23,29.67V62.25c0,4.62.76,8,2.29,10.2,2.28,3.17,5.45,4.63,9.63,4.63a11.34,11.34,0,0,0,9.64-4.63c1.52-2,2.28-5.45,2.28-10.2V29.67h8.18V64.59c0,5.77-1.78,10.46-5.39,14.14a19.79,19.79,0,0,1-14.71,6.21,19.8,19.8,0,0,1-20.09-20.35V29.67Z"/><path class="cls-1" d="M172.32,56.61A26.32,26.32,0,0,1,180.69,37a27.71,27.71,0,0,1,20.09-8.24,27.32,27.32,0,0,1,19.91,8.3A26.93,26.93,0,0,1,229.06,57a26.79,26.79,0,0,1-8.37,19.9,28.79,28.79,0,0,1-39.18,1C175.37,72.39,172.32,65.29,172.32,56.61Zm8.24.12c0,6,2,11,6.09,14.77a19.5,19.5,0,0,0,13.94,5.83A19.18,19.18,0,0,0,215,71.44a20.27,20.27,0,0,0,5.9-14.52,20,20,0,0,0-20.1-20.41,19,19,0,0,0-14.26,5.9A19,19,0,0,0,180.56,56.73Z"/><path d="M208.64,54.39h-5v-5a2.77,2.77,0,0,0-2.79-2.79,2.82,2.82,0,0,0-2.79,2.79v5h-5a2.79,2.79,0,0,0,0,5.58h5v5a2.77,2.77,0,0,0,2.79,2.79A2.82,2.82,0,0,0,203.64,65V60h5a2.77,2.77,0,0,0,2.79-2.79A2.8,2.8,0,0,0,208.64,54.39Z"/><path class="cls-2" d="M57.05,8.18A48.43,48.43,0,1,1,8.62,56.61,48.43,48.43,0,0,1,57.05,8.18Z"/><path class="cls-1" d="M0,56.1C0,40.76,5.58,27.57,16.86,16.54A55.45,55.45,0,0,1,57.3,0C72.83,0,86.14,5.58,97.36,16.67A54.25,54.25,0,0,1,114.1,56.73c0,15.66-5.58,29-16.86,39.94s-24.85,16.41-40.76,16.41c-14.07,0-26.75-4.81-38-14.57Q0,82.34,0,56.1Zm16.61.25c0,12,4.05,21.93,12.17,29.67S46.15,97.68,56.73,97.68c11.41,0,21.11-3.93,29-11.85A40.13,40.13,0,0,0,97.49,56.61c0-11.6-3.93-21.37-11.66-29.23S68.59,15.47,57.11,15.47A39,39,0,0,0,28.33,27.32C20.54,35.18,16.61,44.82,16.61,56.35Z"/><path class="cls-3" d="M73,51.53h-10V41.46a5.58,5.58,0,1,0-11.15,0V51.53H41.71a5.58,5.58,0,1,0,0,11.16H51.79V72.77a5.58,5.58,0,1,0,11.15,0V62.69H73A5.58,5.58,0,1,0,73,51.53Z"/></g></g></svg>